<?xml version="1.0" encoding="iso-8859-1"?>
<!-- Generator: Adobe Illustrator 18.1.1, SVG Export Plug-In . SVG Version: 6.00 Build 0)  -->
<svg version="1.1" id="Capa_1" xmlns="http://www.w3.org/2000/svg" xmlns:xlink="http://www.w3.org/1999/xlink" x="0px" y="0px"
	 viewBox="0 0 257.567 257.567" style="enable-background:new 0 0 257.567 257.567;" xml:space="preserve">
<g>
	<path style="fill:#C8C8C8;" d="M226.657,97.909c-0.033-0.462-0.12-0.908-0.267-1.354c-0.065-0.179-0.114-0.359-0.196-0.544
		c-0.261-0.571-0.593-1.115-1.055-1.577l0,0l0,0c0-0.005-0.005-0.011-0.005-0.011L132.3,1.594c-0.468-0.468-1.023-0.8-1.599-1.066
		c-0.158-0.071-0.315-0.114-0.479-0.169c-0.462-0.163-0.936-0.261-1.425-0.288C128.683,0.06,128.574,0,128.46,0H67.113
		C47.108,0,30.839,16.274,30.839,36.279v185.015c0,20.005,16.274,36.273,36.273,36.273h123.342
		c19.999,0,36.273-16.268,36.273-36.273V98.273C226.727,98.148,226.662,98.034,226.657,97.909z M133.888,18.569l74.27,74.265
		h-48.875c-14.006,0-25.395-11.389-25.395-25.395C133.888,67.439,133.888,18.569,133.888,18.569z M190.454,246.683H67.113
		c-14.006,0-25.395-11.395-25.395-25.395V36.279c0-14.006,11.395-25.4,25.395-25.4h55.897v56.561
		c0,20.005,16.274,36.273,36.273,36.273h56.566v117.576C215.849,235.294,204.46,246.683,190.454,246.683z"/>
</g>
<g>
</g>
<g>
</g>
<g>
</g>
<g>
</g>
<g>
</g>
<g>
</g>
<g>
</g>
<g>
</g>
<g>
</g>
<g>
</g>
<g>
</g>
<g>
</g>
<g>
</g>
<g>
</g>
<g>
</g>
</svg>
